<svg xmlns="http://www.w3.org/2000/svg" viewBox="0 0 180 140" role="img" aria-label="standard in perspective"><title>Standard perspective illustration</title><ellipse cx="88" cy="122" rx="66" ry="8" fill="#315775" opacity=".09"/><polygon points="67.16,78.60 85.20,86.96 85.20,80.96 67.16,72.60" fill="#7597ac" stroke="#567387" stroke-width="0.85" stroke-linejoin="round"/><polygon points="95.86,82.02 85.20,86.96 85.20,80.96 95.86,76.02" fill="#466b85" stroke="#567387" stroke-width="0.85" stroke-linejoin="round"/><polygon points="77.82,67.66 95.86,76.02 85.20,80.96 67.16,72.60" fill="#b5cbd8" stroke="#567387" stroke-width="0.85" stroke-linejoin="round"/><polygon points="107.34,97.22 125.38,105.58 125.38,99.58 107.34,91.22" fill="#7597ac" stroke="#567387" stroke-width="0.85" stroke-linejoin="round"/><polygon points="136.04,100.64 125.38,105.58 125.38,99.58 136.04,94.64" fill="#466b85" stroke="#567387" stroke-width="0.85" stroke-linejoin="round"/><polygon points="118.00,86.28 136.04,94.64 125.38,99.58 107.34,91.22" fill="#b5cbd8" stroke="#567387" stroke-width="0.85" stroke-linejoin="round"/><polygon points="39.28,91.52 57.32,99.88 57.32,93.88 39.28,85.52" fill="#7597ac" stroke="#567387" stroke-width="0.85" stroke-linejoin="round"/><polygon points="67.98,94.94 57.32,99.88 57.32,93.88 67.98,88.94" fill="#466b85" stroke="#567387" stroke-width="0.85" stroke-linejoin="round"/><polygon points="49.94,80.58 67.98,88.94 57.32,93.88 39.28,85.52" fill="#b5cbd8" stroke="#567387" stroke-width="0.85" stroke-linejoin="round"/><polygon points="79.46,110.14 97.50,118.50 97.50,112.50 79.46,104.14" fill="#7597ac" stroke="#567387" stroke-width="0.85" stroke-linejoin="round"/><polygon points="108.16,113.56 97.50,118.50 97.50,112.50 108.16,107.56" fill="#466b85" stroke="#567387" stroke-width="0.85" stroke-linejoin="round"/><polygon points="90.12,99.20 108.16,107.56 97.50,112.50 79.46,104.14" fill="#b5cbd8" stroke="#567387" stroke-width="0.85" stroke-linejoin="round"/><polygon points="32.72,85.52 98.32,115.92 98.32,77.92 32.72,47.52" fill="#90b3c9" stroke="#567387" stroke-width="0.85" stroke-linejoin="round"/><polygon points="142.60,95.40 98.32,115.92 98.32,77.92 142.60,57.40" fill="#638ba5" stroke="#567387" stroke-width="0.85" stroke-linejoin="round"/><polygon points="77.00,27.00 142.60,57.40 98.32,77.92 32.72,47.52" fill="#e0ecf2" stroke="#567387" stroke-width="0.85" stroke-linejoin="round"/><polygon points="77.00,30.04 136.04,57.40 98.32,74.88 39.28,47.52" fill="#52748b" stroke="#567387" stroke-width="0.85" stroke-linejoin="round"/><polygon points="77.00,30.04 136.04,57.40 136.04,71.40 77.00,44.04" fill="#82a5bd" stroke="#567387" stroke-width="0.85" stroke-linejoin="round"/><polygon points="77.00,44.04 136.04,71.40 98.32,74.88 39.28,47.52" fill="#afcbdc" stroke="#567387" stroke-width="0.85" stroke-linejoin="round"/><polygon points="77.00,30.04 77.00,44.04 39.28,47.52" fill="#6e91ab" stroke="#567387" stroke-width="0.85" stroke-linejoin="round"/><polygon points="104.88,45.72 107.34,46.86 72.08,63.20 69.62,62.06" fill="#e1edf3" stroke="#567387" stroke-width="0.85" stroke-linejoin="round"/><polygon points="104.88,45.72 69.62,62.06 69.62,73.06 104.88,56.72" fill="#83a6bc" stroke="#567387" stroke-width="0.85" stroke-linejoin="round"/><polygon points="48.30,46.90 63.88,54.12 57.32,62.16 41.74,54.94" fill="#e5d6b2" stroke="#567387" stroke-width="0.85" stroke-linejoin="round"/></svg>